<svg width="15" height="13" viewBox="0 0 15 13" fill="none" xmlns="http://www.w3.org/2000/svg">
<path d="M7.50007 12.5125C7.40801 12.5122 7.31863 12.4814 7.2459 12.425C4.92923 10.625 3.3334 9.07496 2.21673 7.54579C0.791733 5.59162 0.466733 3.78746 1.25007 2.18329C1.8084 1.03746 3.41257 0.0999582 5.28757 0.645791C6.18154 0.904016 6.96152 1.45779 7.50007 2.21662C8.03862 1.45779 8.81859 0.904016 9.71257 0.645791C11.5834 0.108291 13.1917 1.03746 13.7501 2.18329C14.5334 3.78746 14.2084 5.59162 12.7834 7.54579C11.6667 9.07496 10.0709 10.625 7.75424 12.425C7.68151 12.4814 7.59213 12.5122 7.50007 12.5125ZM4.2209 1.32496C3.77476 1.30759 3.33231 1.41206 2.94104 1.62714C2.54978 1.84223 2.22448 2.15981 2.00007 2.54579C1.35423 3.87079 1.6459 5.34579 2.89173 7.04996C4.21572 8.7577 5.76607 10.2772 7.50007 11.5666C9.23379 10.2785 10.7841 8.7604 12.1084 7.05412C13.3584 5.34579 13.6459 3.87079 13.0001 2.54996C12.5834 1.71662 11.3334 1.05412 9.94174 1.44579C9.4955 1.57767 9.08183 1.80151 8.72732 2.10291C8.37282 2.40431 8.08535 2.77659 7.8834 3.19579C7.85201 3.27221 7.79861 3.33758 7.72998 3.38358C7.66136 3.42958 7.5806 3.45414 7.49799 3.45414C7.41537 3.45414 7.33462 3.42958 7.26599 3.38358C7.19736 3.33758 7.14396 3.27221 7.11257 3.19579C6.91214 2.77554 6.62516 2.40239 6.27044 2.1008C5.91572 1.79921 5.50126 1.576 5.05423 1.44579C4.78339 1.36713 4.50293 1.32646 4.2209 1.32496Z" fill="#121212"/>
</svg>
