<svg width="15" height="15" viewBox="0 0 15 15" fill="none" xmlns="http://www.w3.org/2000/svg">
<path d="M11.3082 14.1667H3.69153C3.5312 14.1629 3.37318 14.1276 3.22651 14.0627C3.07983 13.9978 2.94738 13.9047 2.83671 13.7886C2.72605 13.6725 2.63934 13.5358 2.58154 13.3862C2.52375 13.2366 2.49599 13.077 2.49987 12.9167V4.6792H3.3332V12.9167C3.32922 12.9676 3.33535 13.0188 3.35123 13.0674C3.36711 13.1159 3.39243 13.1608 3.42573 13.1995C3.45903 13.2383 3.49966 13.27 3.54527 13.293C3.59089 13.316 3.6406 13.3297 3.69153 13.3334H11.3082C11.3591 13.3297 11.4088 13.316 11.4545 13.293C11.5001 13.27 11.5407 13.2383 11.574 13.1995C11.6073 13.1608 11.6326 13.1159 11.6485 13.0674C11.6644 13.0188 11.6705 12.9676 11.6665 12.9167V4.6792H12.4999V12.9167C12.5037 13.077 12.476 13.2366 12.4182 13.3862C12.3604 13.5358 12.2737 13.6725 12.163 13.7886C12.0524 13.9047 11.9199 13.9978 11.7732 14.0627C11.6266 14.1276 11.4685 14.1629 11.3082 14.1667Z" fill="#121212"/>
<path d="M12.8248 3.74996H2.08317C1.97266 3.74996 1.86668 3.70606 1.78854 3.62792C1.7104 3.54978 1.6665 3.4438 1.6665 3.33329C1.6665 3.22279 1.7104 3.11681 1.78854 3.03866C1.86668 2.96052 1.97266 2.91663 2.08317 2.91663H12.8248C12.9353 2.91663 13.0413 2.96052 13.1195 3.03866C13.1976 3.11681 13.2415 3.22279 13.2415 3.33329C13.2415 3.4438 13.1976 3.54978 13.1195 3.62792C13.0413 3.70606 12.9353 3.74996 12.8248 3.74996Z" fill="#121212"/>
<path d="M8.75 5.41663H9.58333V11.6666H8.75V5.41663Z" fill="#121212"/>
<path d="M5.4165 5.41663H6.24984V11.6666H5.4165V5.41663Z" fill="#121212"/>
<path d="M9.58317 2.44171H8.79151V1.66671H6.20817V2.44171H5.4165V1.66671C5.41624 1.45273 5.49829 1.24684 5.64567 1.09171C5.79305 0.936571 5.99446 0.844073 6.20817 0.833374H8.79151C9.00522 0.844073 9.20663 0.936571 9.35401 1.09171C9.50138 1.24684 9.58344 1.45273 9.58317 1.66671V2.44171Z" fill="#121212"/>
</svg>
